<svg xmlns:x="http://ns.adobe.com/Extensibility/1.0/" xmlns:i="http://ns.adobe.com/AdobeIllustrator/10.0/" xmlns:graph="http://ns.adobe.com/Graphs/1.0/" xmlns="http://www.w3.org/2000/svg" xmlns:xlink="http://www.w3.org/1999/xlink" version="1.1" x="0px" y="0px" viewBox="0 0 85 106.25" style="enable-background:new 0 0 85 85;" xml:space="preserve"><metadata><sfw xmlns="http://ns.adobe.com/SaveForWeb/1.0/"><slices/><sliceSourceBounds bottomLeftOrigin="true" height="85.1" width="75.9" x="0" y="0"/></sfw></metadata><g><path d="M27.9,37.3c-0.5,3.2-1,3.5-2.2,4.4c0,0-0.1,0-0.1,0.1c-1.1,0.7-3.8,0.7-5.7,0.4c0.4-1.4,1.1-4.6,1.5-8.2   c0.1-1.2,0.2-2.5,0.2-3.8c0-1.3-0.1-2.5-0.3-3.7c-0.4-2.4-2.4-3.8-5-5.5c-1.1-0.7-2.3-1.6-3.5-2.6c-0.6-0.5-1.2-1-1.8-1.6   C6,11.9,4.3,5,3.7,1.8C3.5,0.6,3.5-0.1,3.5-0.1C3.5,0,3.1,0,2.8,0c0,0,0,0,0,0c-0.4,0-0.7,0-0.7,0s0.9,10.7,8,17.8   c1.5,1.5,3.1,2.7,4.5,3.6c0.4,0.3,0.7,0.5,1.1,0.7c2.4,1.6,4.1,2.7,4.3,4.6c0.2,1.6,0.3,3.3,0.2,5c-0.3,5.5-1.8,10.8-1.8,10.9   l-0.2,0.8l0.8,0.1c0.5,0.1,5.2,0.8,7.4-0.5c0.1-0.1,0.2-0.1,0.3-0.2c1.4-1,1.9-1.6,2.4-3.9c-0.2-0.3-0.4-0.5-0.6-0.8   C28.2,37.9,28.1,37.6,27.9,37.3z"/><path d="M11.4,78.9C8.9,77.9,0.9,78.6,0,78.7l0,1.4c2.4-0.2,9-0.7,10.8,0.1c1.8,0.8,2.3,1.9,2,4.7l1.4,0.1   C14.5,82.2,14.2,80.1,11.4,78.9z"/><path d="M72.4,0h-1.4c1.4,4.5,4.4,16.5,3,28.5c-1.8,15.9-6.1,24.6-10.6,32.2c-6.3-3.1-9.2-6.6-10.5-9c1.4-0.4,2.8-1.2,3.8-2.9   c1.6-2.7,1.6-8.8,1.4-12.2c0-1-0.1-2-0.2-3c1-0.3,2.5-1.1,2.3-3.2c-0.2-2.2-2.5-2.8-3.3-3c-1.1-3.6-3.2-6.9-7.6-9.1   c-5.4-2.8-12.3-0.5-13.9,0.1c-2.6,1.1-2.5,3.3-2.5,3.6c0,0,0,0.1,0,0.1c0,0,0,0.1,0,0.1c0.1,0.5,0.2,1.2,0.4,1.9   c0,0.1,0.1,0.3,0.1,0.4c0.1,0.2,0.2,0.4,0.3,0.7c0.1,0.2,0.2,0.3,0.2,0.5c0,0.1,0.1,0.1,0.1,0.2c0.2-0.1,0.4-0.3,0.6-0.4   c2.9-1.7,6.3-1.8,8-1.4c0.2,0,0.3,0.1,0.5,0.1c0.9,0.2,1.7,0.5,2.4,0.8c1.9,0.8,3.3,1.8,4.1,3.2c0.6,1,0.9,2.2,0.9,3.6   c0,0.9-0.1,1.7-0.2,2.5c0,0.1-0.1,0.3-0.1,0.4c-0.2,0.7-0.4,1.4-0.6,2.1c-0.6,1.9-1.3,4.1-1.4,8.1c0,0.2,0,0.5-0.1,0.9   c-0.1,1.1-0.3,2.8-0.8,4.5c-1,3.7-3.4,7.9-8.7,7.8c-3.9,0-5.2-3.2-5.3-3.3c-0.2-0.4-0.6-0.5-0.9-0.4c0,0,0,0-0.1,0   c-0.3,0.2-0.5,0.5-0.3,0.9c0.1,0.2,1.7,4.1,6.6,4.2c5.2,0.1,8.3-3.4,9.8-7.9c0.8,0.2,1.8,0.4,2.9,0.3c1.3,2.7,4.3,6.6,11.3,10   c-0.4,0.7-0.9,1.4-1.3,2.1c-1.7,2.8-3.3,5.4-4.8,8.4c-2.2,4.3-0.8,12.3-0.8,12.6l1.4-0.1c0-0.1-1.4-8,0.6-11.9   c1.5-2.9,3.1-5.5,4.8-8.3c5.3-8.6,10.7-17.5,12.9-36.1C76.9,16.4,73.8,4.6,72.4,0z"/><path d="M33.2,40.8c0,0.2-0.1,0.5-0.1,0.7c0,3,2.5,5.5,5.5,5.5c3,0,5.5-2.4,5.5-5.5c0-3-2.5-5.5-5.5-5.5c-2.1,0-3.9,1.1-4.8,2.8   c-1.9-1.1-3.9-3-3.9-5.8c0-0.1,0-0.2,0-0.3c0.3-2.5,1.3-4.5,3-6c0,0,0,0,0-0.1c-0.1-0.2-0.2-0.4-0.3-0.6c-0.1-0.2-0.2-0.5-0.3-0.7   c-0.3-0.6-0.4-1.3-0.6-1.9c-1,1.2-2,2.9-2.8,4.9c-1,2.5-1.1,4.6-0.7,6.3c0,0,0,0,0,0c0,0,0,0,0,0c0.1,0.3,0.3,0.8,0.5,1.3   c0.2,0.3,0.3,0.7,0.6,1c0.4,0.6,0.9,1.3,1.5,1.9l0,0C31.6,39.6,32.4,40.2,33.2,40.8z"/></g><text x="0" y="100" fill="#000000" font-size="5px" font-weight="bold" font-family="'Helvetica Neue', Helvetica, Arial-Unicode, Arial, Sans-serif">Created by Hayashi Fumihiro</text><text x="0" y="105" fill="#000000" font-size="5px" font-weight="bold" font-family="'Helvetica Neue', Helvetica, Arial-Unicode, Arial, Sans-serif">from the Noun Project</text></svg>